<?xml version="1.0" standalone="no"?>
<!DOCTYPE svg PUBLIC "-//W3C//DTD SVG 20010904//EN"
 "http://www.w3.org/TR/2001/REC-SVG-20010904/DTD/svg10.dtd">
<svg version="1.0" xmlns="http://www.w3.org/2000/svg"
 width="2048.000000pt" height="2048.000000pt" viewBox="0 0 2048.000000 2048.000000"
 preserveAspectRatio="xMidYMid meet">

<g transform="translate(0.000000,2048.000000) scale(0.100000,-0.100000)"
fill="#000000" stroke="none">
<path d="M9728 20453 c6 -2 18 -2 25 0 6 3 1 5 -13 5 -14 0 -19 -2 -12 -5z"/>
<path d="M9527 20443 c18 -2 50 -2 70 0 21 2 7 4 -32 4 -38 0 -55 -2 -38 -4z"/>
<path d="M10878 20443 c23 -2 59 -2 80 0 20 2 1 4 -43 4 -44 0 -61 -2 -37 -4z"/>
<path d="M9270 20424 c-187 -16 -229 -24 -100 -18 178 8 255 14 285 23 l30 9
-30 0 c-16 0 -100 -7 -185 -14z"/>
<path d="M11070 20427 c30 -7 98 -13 150 -14 91 -1 92 -1 30 7 -36 4 -103 10
-150 13 -85 6 -85 6 -30 -6z"/>
<path d="M10938 20403 c6 -2 18 -2 25 0 6 3 1 5 -13 5 -14 0 -19 -2 -12 -5z"/>
<path d="M11338 20403 c12 -2 32 -2 45 0 12 2 2 4 -23 4 -25 0 -35 -2 -22 -4z"/>
<path d="M9008 20393 c6 -2 18 -2 25 0 6 3 1 5 -13 5 -14 0 -19 -2 -12 -5z"/>
<path d="M8933 20383 c9 -2 25 -2 35 0 9 3 1 5 -18 5 -19 0 -27 -2 -17 -5z"/>
<path d="M11530 20380 c25 -4 79 -10 120 -13 l75 -6 -80 14 c-44 7 -98 13
-120 13 l-40 0 45 -8z"/>
<path d="M8858 20373 c12 -2 30 -2 40 0 9 3 -1 5 -23 4 -22 0 -30 -2 -17 -4z"/>
<path d="M8783 20363 c9 -2 25 -2 35 0 9 3 1 5 -18 5 -19 0 -27 -2 -17 -5z"/>
<path d="M8588 20340 c-117 -20 -162 -32 -83 -24 94 11 260 42 225 42 -19 0
-83 -8 -142 -18z"/>
<path d="M11760 20350 c19 -5 62 -11 95 -14 47 -4 52 -3 25 4 -19 5 -62 11
-95 14 -47 4 -52 3 -25 -4z"/>
<path d="M9715 20320 c-826 -47 -1691 -198 -2420 -425 -446 -138 -993 -349
-1339 -516 -47 -23 -61 -18 -17 6 29 14 34 35 10 35 -6 0 -7 -5 -3 -11 4 -8 0
-9 -15 -4 -15 5 -21 2 -21 -9 0 -9 -4 -16 -8 -16 -4 0 -8 9 -8 20 0 13 7 20
21 21 11 0 14 3 7 6 -6 2 -9 10 -6 15 4 6 2 8 -4 4 -6 -3 -17 0 -25 8 -9 9
-19 11 -28 5 -19 -12 -42 -11 -34 1 3 6 4 10 0 10 -9 0 -265 -130 -265 -135 0
-6 19 3 99 43 44 22 68 29 75 22 7 -7 4 -10 -7 -10 -10 0 -17 -8 -17 -17 0
-14 2 -15 9 -4 6 9 11 10 15 2 7 -10 3 -13 -34 -24 -8 -2 -1 -7 17 -11 36 -8
54 -36 23 -36 -10 0 -22 -5 -26 -11 -5 -9 1 -10 22 -5 16 3 -23 -21 -86 -55
-107 -58 -328 -178 -409 -224 -80 -45 -141 -81 -248 -147 -64 -39 -118 -66
-124 -62 -7 4 -9 3 -6 -3 9 -14 -40 -46 -55 -37 -6 4 -8 3 -4 -4 3 -6 -20 -26
-55 -48 -34 -20 -117 -74 -185 -120 -67 -46 -121 -78 -118 -71 2 7 22 22 44
35 38 22 52 42 29 42 -6 0 -9 9 -6 20 5 21 -16 29 -28 10 -3 -5 -14 -10 -23
-9 -12 0 -11 3 6 9 26 11 28 25 6 38 -14 8 -13 10 2 23 16 12 17 12 11 -3 -3
-10 -2 -20 2 -23 11 -6 23 23 15 37 -3 5 3 12 15 15 12 3 21 10 21 16 0 6 2 8
5 5 12 -11 -7 -37 -23 -31 -14 5 -15 3 -5 -7 10 -11 15 -11 28 0 10 8 15 9 15
2 0 -15 -35 -33 -45 -24 -5 4 -5 2 -2 -5 4 -6 1 -14 -5 -16 -7 -3 3 -5 22 -6
28 0 31 2 15 9 -19 8 -19 9 3 9 13 1 22 -5 22 -14 0 -8 5 -15 11 -15 5 0 8 4
4 9 -3 5 -1 12 5 16 5 3 10 -1 10 -10 0 -9 5 -13 10 -10 6 4 8 11 4 16 -3 5
-1 15 5 22 7 9 1 21 -23 45 l-33 32 -79 -53 c-68 -46 -79 -57 -77 -80 1 -15
-2 -27 -8 -27 -6 0 -8 4 -5 8 2 4 1 13 -3 20 -5 8 -18 4 -45 -14 -30 -21 -35
-28 -25 -36 11 -8 10 -9 -4 -4 -22 7 -124 -63 -107 -74 8 -5 9 -10 2 -14 -6
-3 -12 -1 -14 6 -3 8 -17 2 -41 -16 -24 -18 -34 -33 -30 -44 4 -14 3 -14 -5
-3 -9 12 -16 10 -46 -13 -20 -15 -34 -31 -31 -36 2 -4 -3 -14 -13 -21 -15 -13
-16 -12 -3 4 20 25 5 21 -40 -10 -21 -16 -37 -33 -34 -40 2 -7 0 -15 -5 -18
-6 -4 -10 -1 -10 6 0 16 -101 -62 -320 -250 -180 -154 -239 -212 -233 -229 4
-15 3 -15 -6 -2 -9 13 -19 7 -63 -36 -29 -28 -102 -97 -162 -155 -95 -91 -374
-371 -401 -403 -11 -13 -92 -101 -166 -182 -25 -27 -70 -79 -100 -114 -29 -36
-56 -67 -59 -70 -26 -22 -271 -328 -363 -452 -144 -196 -167 -228 -223 -308
-33 -47 -100 -146 -148 -220 -49 -74 -108 -164 -131 -200 -91 -138 -244 -405
-380 -660 -581 -1090 -984 -2392 -1114 -3600 -90 -834 -89 -1547 5 -2390 47
-422 115 -792 234 -1275 436 -1769 1369 -3419 2670 -4725 592 -595 1270 -1126
1990 -1560 1161 -699 2500 -1173 3841 -1360 1078 -150 2227 -127 3272 66 2370
436 4502 1685 6048 3544 311 374 685 906 921 1310 211 362 458 848 606 1195
217 509 361 935 497 1470 157 615 243 1136 291 1750 3 44 8 91 10 105 9 60 19
420 19 700 0 815 -83 1546 -266 2335 -194 839 -533 1734 -957 2525 -356 665
-870 1393 -1391 1969 -109 121 -102 115 -113 99 -7 -9 -8 -8 -4 5 6 20 -18 47
-239 271 -130 133 -412 400 -427 405 -6 2 -8 -1 -4 -8 4 -6 2 -11 -4 -11 -6 0
-9 8 -7 18 4 12 -19 38 -78 90 -80 70 -112 91 -84 55 13 -16 12 -17 -3 -4 -10
7 -16 17 -13 21 8 13 -103 103 -116 94 -7 -4 -9 -3 -5 4 9 15 -198 184 -217
176 -8 -3 -18 0 -23 7 -4 8 -3 10 4 5 25 -15 10 12 -18 32 -31 24 -45 28 -35
12 3 -5 -1 -10 -10 -10 -12 0 -15 6 -10 20 3 11 4 20 1 20 -9 0 -36 -57 -30
-63 3 -3 1 -15 -6 -26 -10 -20 -12 -20 -35 -5 -13 9 -29 13 -35 9 -6 -3 -38
15 -73 42 -77 60 -312 228 -430 307 -65 43 -85 62 -75 69 9 6 8 7 -5 3 -11 -4
-31 2 -47 14 -15 11 -30 20 -33 20 -5 0 -171 102 -234 143 -17 12 -29 26 -26
31 3 5 1 6 -6 2 -6 -4 -27 2 -46 14 -40 24 -45 35 -14 25 13 -5 19 -3 15 3 -7
12 22 25 36 16 6 -4 14 0 19 7 6 11 0 15 -29 19 -29 4 -41 1 -57 -17 l-20 -22
-146 82 c-80 45 -266 143 -412 217 -169 86 -261 138 -254 143 7 5 3 6 -10 2
-14 -4 -40 3 -70 18 -26 14 -75 36 -108 50 -33 13 -130 54 -215 89 -362 152
-627 248 -945 342 -748 221 -1363 335 -2169 402 -212 18 -1050 27 -1281 14z
m-835 -442 c0 -7 11 -107 25 -223 14 -115 25 -216 25 -222 0 -30 23 -6 96 100
42 61 80 115 83 119 8 8 171 31 178 24 5 -5 -55 -94 -134 -198 -24 -31 -43
-62 -43 -68 0 -6 63 -79 140 -161 77 -82 140 -153 140 -158 0 -4 -39 -11 -87
-15 l-88 -8 -33 39 c-18 21 -58 68 -90 105 -31 36 -64 69 -72 73 -9 4 -24 -4
-38 -21 -20 -22 -23 -35 -18 -68 3 -23 8 -68 12 -102 l6 -61 -73 -6 c-40 -3
-74 -5 -75 -4 -7 7 -105 831 -100 842 3 8 24 15 53 18 26 2 58 4 71 5 12 1 22
-4 22 -10z m1789 -164 c5 -5 4 -42 -2 -82 -10 -67 -12 -72 -31 -65 -12 5 -55
8 -96 8 -63 0 -80 -4 -109 -24 -54 -39 -61 -69 -61 -261 l0 -170 -70 0 -70 0
0 300 0 300 65 0 65 0 0 -40 c0 -40 21 -57 33 -25 3 7 30 28 59 45 49 29 58
31 131 27 43 -2 81 -8 86 -13z m-848 -9 c127 -45 200 -176 187 -338 -10 -117
-71 -212 -165 -253 -57 -25 -176 -24 -233 2 -105 48 -152 129 -158 275 -6 136
23 214 103 274 70 54 179 70 266 40z m1122 -29 c-2 -26 -1 -27 15 -13 31 28
92 49 123 42 16 -4 43 -20 60 -37 l30 -31 31 23 c41 30 108 31 146 4 15 -11
36 -38 46 -59 19 -38 19 -44 3 -274 -10 -130 -17 -244 -17 -253 0 -15 -9 -18
-57 -18 -88 0 -86 -4 -73 151 29 347 28 359 -20 359 -18 0 -33 -7 -39 -18 -11
-20 -27 -157 -40 -336 -6 -70 -12 -130 -15 -133 -3 -3 -35 -2 -71 2 l-66 7 5
36 c3 21 13 123 22 229 17 206 13 233 -29 233 -12 0 -28 -4 -34 -8 -11 -7 -53
-375 -53 -461 0 -24 -1 -24 -66 -18 -37 4 -69 8 -71 11 -2 2 7 122 22 267 14
145 25 278 25 296 l0 34 63 -3 c61 -3 62 -3 60 -32z m886 -66 c78 -13 128 -38
169 -84 54 -62 58 -97 28 -291 -14 -93 -26 -194 -26 -224 l0 -53 -57 6 c-84
10 -93 14 -93 42 0 24 -23 34 -35 15 -3 -5 -29 -15 -58 -20 -97 -21 -207 24
-244 98 -20 41 -22 125 -3 162 45 87 117 115 272 105 121 -7 126 -5 114 59 -8
43 -38 64 -103 71 -43 6 -53 3 -80 -20 -34 -29 -54 -32 -104 -15 -49 17 -53
23 -35 60 21 44 72 78 133 89 26 4 50 8 53 9 3 0 34 -4 69 -9z m534 -116 c34
-6 37 -9 37 -40 l0 -34 43 17 c105 43 231 7 275 -77 20 -38 23 -56 19 -115 -4
-58 -87 -429 -99 -441 -5 -5 -122 26 -131 35 -4 4 11 84 33 177 23 93 44 190
47 216 5 42 3 50 -24 77 -17 16 -42 33 -57 37 -37 9 -90 -3 -111 -26 -10 -12
-36 -99 -65 -222 -25 -112 -51 -203 -56 -202 -39 2 -134 30 -134 40 0 6 29
137 65 290 36 153 65 280 65 282 0 2 12 1 28 -2 15 -3 44 -8 65 -12z m-6521
-55 c15 5 30 6 39 0 9 -6 10 -9 2 -9 -7 0 -10 -7 -6 -16 5 -13 3 -15 -13 -6
-22 11 -65 0 -46 -12 7 -4 16 -5 20 -2 13 8 35 -11 28 -23 -4 -6 -17 -11 -29
-10 -21 0 -21 1 -2 9 19 8 19 9 -2 9 -12 1 -30 4 -40 7 -15 5 -16 4 -3 -5 14
-10 -2 -11 -50 -2 -3 1 2 6 10 11 10 6 11 10 3 10 -24 0 -13 17 19 33 20 10
35 12 39 6 3 -6 15 -6 31 0z m2074 -41 c-3 -24 -11 -92 -17 -153 -6 -60 -19
-184 -28 -275 l-17 -165 -54 -17 c-92 -28 -89 -30 -176 95 -43 61 -103 148
-134 192 -109 154 -142 207 -134 214 8 6 124 41 138 41 4 0 105 -160 197 -314
l48 -79 5 34 c4 19 10 123 14 231 4 108 10 200 14 203 8 8 98 32 127 34 22 1
23 -2 17 -41z m-2121 -56 c-3 -3 -11 0 -18 7 -9 10 -8 11 6 5 10 -3 15 -9 12
-12z m99 6 c-3 -4 -9 -8 -15 -8 -5 0 -9 4 -9 8 0 5 7 9 15 9 8 0 12 -4 9 -9z
m-43 -13 c1 -17 -18 -17 -25 0 -4 11 -1 15 10 13 8 -2 15 -7 15 -13z m7183
-19 c58 -17 58 -17 52 -50 l-6 -33 56 19 c48 16 64 17 109 8 109 -23 175 -106
162 -203 -6 -40 -87 -309 -123 -404 -9 -24 -21 -43 -28 -43 -11 0 -113 38
-124 46 -2 1 21 79 52 173 31 93 59 190 62 214 6 39 3 48 -22 76 -47 52 -138
55 -170 6 -8 -13 -40 -106 -70 -207 -30 -101 -58 -186 -62 -190 -9 -9 -142 31
-142 42 0 7 159 515 175 558 3 7 8 11 12 9 5 -3 34 -12 67 -21z m-7214 0 c0
-2 -7 -6 -15 -10 -8 -3 -15 -1 -15 4 0 6 7 10 15 10 8 0 15 -2 15 -4z m638
-143 c17 -42 65 -156 189 -453 20 -47 56 -129 80 -183 25 -54 43 -100 41 -101
-1 -1 -28 -13 -58 -25 -30 -13 -60 -25 -67 -28 -6 -2 -13 5 -15 18 -4 26 -28
38 -28 14 0 -28 -39 -73 -86 -101 -147 -86 -321 37 -378 267 -19 78 -20 96 -4
156 15 63 87 137 147 153 25 7 64 9 88 5 29 -4 43 -3 43 5 0 6 -25 70 -55 142
-31 72 -55 132 -53 133 7 8 104 43 119 44 10 1 24 -16 37 -46z m711 -16 c24
-12 61 -43 81 -68 42 -53 87 -156 74 -168 -8 -7 -279 -106 -341 -126 -34 -10
-28 -29 19 -69 34 -29 50 -36 85 -36 57 0 112 29 156 82 l35 42 42 -19 c22
-10 43 -22 46 -27 3 -5 -6 -28 -20 -52 -97 -166 -333 -208 -464 -83 -79 75
-127 234 -103 340 37 169 233 261 390 184z m1302 -27 c25 -14 49 -62 49 -101
0 -39 -56 -99 -93 -99 -61 0 -117 52 -117 108 0 31 28 78 54 91 28 13 83 14
107 1z m6281 -222 c32 -13 58 -26 58 -30 0 -9 -698 -702 -712 -707 -6 -2 -37
9 -70 25 l-60 29 354 350 c194 193 357 352 363 353 5 1 35 -8 67 -20z m-10156
-235 c-4 -4 -11 -1 -16 7 -16 25 -11 35 7 17 9 -9 13 -20 9 -24z m-132 -34 c5
-4 -2 -6 -17 -6 -19 2 -23 5 -15 15 6 7 14 9 17 5 3 -4 10 -11 15 -14z m6191
-34 c22 -2 94 -6 160 -10 145 -7 369 -29 565 -55 167 -23 442 -71 436 -78 -3
-2 -46 1 -96 8 -96 12 -164 6 -125 -11 14 -6 -1 -8 -45 -6 l-65 4 40 -13 c54
-17 36 -17 -92 1 -171 24 -465 54 -576 60 -56 3 -123 8 -150 11 -53 5 -896 6
-942 0 -16 -2 -84 -7 -150 -11 -114 -6 -459 -43 -610 -64 -137 -20 -121 -8 25
18 38 7 32 8 -40 7 -63 -1 -84 2 -83 12 2 7 -7 12 -20 11 -12 0 -16 -3 -9 -6
6 -2 12 -12 12 -20 0 -14 -2 -14 -18 0 -10 10 -35 17 -55 17 -36 0 -50 -13
-24 -23 6 -3 2 -6 -10 -6 -12 -1 -23 4 -25 11 -2 6 -10 8 -16 4 -19 -12 -14
-26 10 -26 35 0 17 -8 -32 -14 -25 -3 -58 -9 -75 -15 l-30 -9 30 -1 c28 -1
164 21 220 35 15 4 25 2 25 -5 0 -6 -10 -11 -22 -11 -13 0 -130 -22 -260 -48
-131 -26 -238 -44 -238 -41 0 4 30 13 66 20 37 7 61 15 54 17 -9 3 -9 7 1 14
10 7 9 8 -6 3 -11 -3 -33 -9 -50 -12 -16 -4 -34 -11 -38 -17 -4 -6 -5 1 -1 16
6 26 5 27 -33 21 -49 -8 -55 -13 -14 -13 18 0 30 -4 27 -9 -3 -4 -24 -4 -48 1
-36 9 -61 5 -163 -21 -66 -18 -163 -43 -215 -57 -52 -14 -97 -27 -99 -30 -3
-3 1 -9 9 -14 8 -6 10 -10 4 -10 -5 0 -15 5 -21 11 -8 8 -19 6 -39 -6 l-29
-16 28 6 c19 4 26 2 22 -5 -3 -5 -13 -10 -21 -10 -8 0 -12 -4 -9 -10 6 -10
-22 -3 -40 11 -9 7 -168 -41 -182 -55 -4 -3 -21 -6 -39 -6 -18 0 -34 -4 -36
-10 -1 -5 -19 -11 -38 -14 -19 -2 -48 -9 -63 -15 -16 -6 -26 -7 -23 -2 7 10
400 139 526 172 47 12 103 28 125 35 131 40 484 119 690 154 502 84 775 111
1335 134 93 4 541 -3 605 -9z m-6291 -14 c-10 -10 -21 -16 -24 -14 -3 3 4 11
14 19 28 20 33 17 10 -5z m10644 -113 c108 -136 234 -296 245 -315 4 -6 -7
-39 -23 -72 -27 -52 -35 -60 -53 -56 -12 3 -136 16 -276 30 -140 14 -256 26
-257 28 -2 1 9 28 23 60 19 42 31 57 46 57 47 0 352 -39 375 -48 21 -8 -4 28
-137 192 l-104 129 29 58 c16 32 30 59 31 59 1 0 47 -55 101 -122z m-10758 22
c0 -5 -4 -10 -10 -10 -5 0 -10 5 -10 10 0 6 5 10 10 10 6 0 10 -4 10 -10z
m175 1 c3 -5 2 -12 -3 -15 -5 -3 -9 1 -9 9 0 17 3 19 12 6z m-30 -30 c-30 -27
-165 -121 -165 -114 0 4 15 18 33 30 17 12 55 38 82 57 48 34 70 46 50 27z
m4450 -11 c3 -5 -3 -10 -15 -10 -12 0 -18 5 -15 10 3 6 10 10 15 10 5 0 12 -4
15 -10z m2818 3 c-7 -2 -19 -2 -25 0 -7 3 -2 5 12 5 14 0 19 -2 13 -5z m-7493
-17 c0 -3 -4 -8 -10 -11 -5 -3 -10 -1 -10 4 0 6 5 11 10 11 6 0 10 -2 10 -4z
m7753 -3 c-7 -2 -19 -2 -25 0 -7 3 -2 5 12 5 14 0 19 -2 13 -5z m-310 -20 c-7
-2 -21 -2 -30 0 -10 3 -4 5 12 5 17 0 24 -2 18 -5z m178 -24 c57 -11 106 -23
109 -26 3 -3 -13 -2 -35 2 -22 4 -85 16 -140 25 -55 10 -86 19 -69 19 18 1 78
-8 135 -20z m372 -8 c7 -7 -3 -7 -29 0 -57 15 -64 20 -20 14 22 -2 44 -9 49
-14z m-6859 -76 l18 -34 -108 -136 c-125 -156 -138 -174 -133 -179 2 -1 74 7
159 20 85 12 174 23 197 23 42 1 43 0 67 -51 13 -29 21 -56 17 -60 -3 -4 -121
-18 -261 -33 -140 -14 -262 -27 -270 -28 -9 -1 -27 20 -45 55 -28 54 -29 60
-15 83 18 29 180 241 263 344 60 73 60 73 77 51 9 -12 24 -37 34 -55z m7069
30 c86 -21 156 -40 153 -42 -4 -4 -106 12 -142 22 -13 4 -27 1 -36 -8 -9 -9
-20 -12 -28 -7 -8 5 -4 11 16 19 27 10 26 11 -14 6 -26 -3 -41 -2 -38 4 6 10
-45 31 -75 31 -10 0 -21 5 -25 11 -4 7 0 9 12 6 11 -3 90 -22 177 -42z m-375
9 c-7 -6 -87 9 -83 16 3 4 23 3 45 -2 23 -6 39 -12 38 -14z m-3669 -3 c11 -7
9 -10 -8 -16 -13 -4 -25 -4 -28 -1 -4 3 2 6 13 6 16 0 17 2 4 10 -8 5 -10 10
-5 10 6 0 16 -4 24 -9z m-4114 -10 c-10 -18 -145 -111 -145 -101 0 5 3 10 8
10 4 0 36 22 72 50 68 52 75 56 65 41z m3990 -1 c3 -5 -3 -10 -15 -10 -12 0
-18 5 -15 10 3 6 10 10 15 10 5 0 12 -4 15 -10z m43 -7 c-2 -9 -10 -18 -18
-20 -12 -4 -13 -3 -1 5 7 5 10 15 7 21 -4 6 -2 11 4 11 6 0 10 -8 8 -17z
m4007 -1 c-3 -3 -11 0 -18 7 -9 10 -8 11 6 5 10 -3 15 -9 12 -12z m-8255 -17
c-7 -8 -16 -15 -21 -15 -5 0 -1 9 8 20 9 11 19 17 21 15 3 -3 -1 -11 -8 -20z
m8125 15 c14 -7 8 -8 -20 -3 -22 3 -42 7 -44 9 -9 8 45 2 64 -6z m-3980 -10
c-3 -5 -12 -10 -18 -10 -7 0 -6 4 3 10 19 12 23 12 15 0z m213 4 c-7 -7 -108
-34 -127 -34 -27 0 -1 13 51 26 59 14 84 17 76 8z m8149 -10 c1 -5 -2 -16 -7
-24 -12 -20 -33 0 -24 24 7 17 25 17 31 0z m-4249 -7 c18 0 27 -4 21 -8 -8 -5
-6 -9 7 -12 10 -3 2 -3 -19 0 -21 3 -57 12 -80 19 l-42 14 40 -6 c22 -4 55 -7
73 -7z m333 -25 c-7 -2 -18 1 -23 6 -8 8 -4 9 13 5 13 -4 18 -8 10 -11z
m-4384 2 c-3 -3 -12 -4 -19 -1 -8 3 -5 6 6 6 11 1 17 -2 13 -5z m8184 -25 c13
-12 38 -28 54 -35 17 -7 27 -13 22 -14 -5 0 61 -63 82 -77 2 -2 2 -5 0 -7 -4
-4 -166 117 -193 145 -20 19 12 8 35 -12z m-8278 4 c-7 -2 -19 -2 -25 0 -7 3
-2 5 12 5 14 0 19 -2 13 -5z m4584 -8 c18 -4 30 -11 27 -16 -3 -5 -18 -2 -33
6 -16 8 -31 12 -34 9 -3 -3 -8 -1 -11 4 -3 6 0 9 6 7 7 -1 28 -6 45 -10z
m-8802 -15 c-3 -5 -11 -10 -16 -10 -6 0 -7 5 -4 10 3 6 11 10 16 10 6 0 7 -4
4 -10z m8552 4 c-3 -3 -12 -4 -19 -1 -8 3 -5 6 6 6 11 1 17 -2 13 -5z m4003
-4 c0 -5 -2 -10 -4 -10 -3 0 -8 5 -11 10 -3 6 -1 10 4 10 6 0 11 -4 11 -10z
m-8443 -6 c-3 -3 -12 -4 -19 -1 -8 3 -5 6 6 6 11 1 17 -2 13 -5z m4508 -4 c3
-5 2 -10 -4 -10 -5 0 -13 5 -16 10 -3 6 -2 10 4 10 5 0 13 -4 16 -10z m-8525
-11 c0 -5 5 -7 12 -3 7 4 8 3 4 -5 -6 -9 -11 -9 -22 0 -17 14 -18 19 -4 19 6
0 10 -5 10 -11z m70 4 c-1 -5 -71 -63 -155 -130 -85 -67 -155 -119 -154 -115
0 4 27 29 60 56 48 39 57 51 48 62 -7 9 -8 14 -1 14 6 0 12 -5 14 -12 6 -18
76 39 73 60 -1 9 0 11 2 5 6 -18 16 -16 33 7 8 11 19 20 25 20 6 0 16 9 23 20
12 19 33 28 32 13z m3895 -3 c-11 -5 -27 -9 -35 -9 -9 0 -8 4 5 9 11 5 27 9
35 9 9 0 8 -4 -5 -9z m4845 0 c8 -5 11 -10 5 -10 -5 0 -17 5 -25 10 -8 5 -10
10 -5 10 6 0 17 -5 25 -10z m3833 -4 c4 -10 1 -13 -9 -9 -15 6 -19 23 -5 23 5
0 11 -7 14 -14z m-12690 -11 c-3 -9 -8 -14 -10 -11 -3 3 -2 9 2 15 9 16 15 13
8 -4z m3812 1 c8 -7 11 -17 7 -21 -8 -8 62 4 96 16 33 12 53 10 22 -2 -14 -6
-86 -28 -160 -50 -74 -22 -143 -42 -154 -45 -12 -4 -16 -2 -12 5 4 6 17 11 29
11 18 0 19 2 7 10 -8 5 -10 10 -5 10 6 0 4 4 -4 9 -9 6 5 15 48 29 34 11 61
16 61 11 0 -5 5 -9 10 -9 6 0 10 6 10 14 0 12 10 21 28 25 2 1 10 -5 17 -13z
m5258 -52 c92 -32 165 -59 163 -61 -2 -3 -61 14 -131 36 -70 22 -132 38 -136
35 -5 -3 -9 0 -9 5 0 6 -4 11 -9 11 -6 0 -8 -9 -6 -20 5 -23 6 -23 -51 -9 -43
11 -44 12 -24 26 11 8 25 11 32 7 8 -5 6 -10 -8 -15 -14 -5 -11 -7 13 -6 38 0
35 21 -5 36 -15 5 -20 10 -12 10 8 1 90 -24 183 -55z m3502 46 c3 -5 2 -10 -4
-10 -5 0 -13 5 -16 10 -3 6 -2 10 4 10 5 0 13 -4 16 -10z m-12535 -4 c0 -3 -4
-8 -10 -11 -5 -3 -10 -1 -10 4 0 6 5 11 10 11 6 0 10 -2 10 -4z m-100 -23 c0
-1 -8 -7 -18 -12 -13 -7 -19 -6 -19 2 0 7 9 13 19 13 10 0 18 -1 18 -3z
m12667 1 c-3 -3 -12 -4 -19 -1 -8 3 -5 6 6 6 11 1 17 -2 13 -5z m-12617 -24
c0 -5 -5 -10 -11 -10 -5 0 -7 5 -4 10 3 6 8 10 11 10 2 0 4 -4 4 -10z m3635
-10 c4 -6 -5 -10 -20 -10 -18 0 -24 -4 -19 -12 5 -10 3 -10 -7 0 -12 11 -12
14 1 22 20 13 37 12 45 0z m5365 0 c-8 -5 -19 -10 -25 -10 -5 0 -3 5 5 10 8 5
20 10 25 10 6 0 3 -5 -5 -10z m-9180 -14 c0 -2 -8 -10 -17 -17 -16 -13 -17
-12 -4 4 13 16 21 21 21 13z m140 -6 c0 -5 -2 -10 -4 -10 -3 0 -8 5 -11 10 -3
6 -1 10 4 10 6 0 11 -4 11 -10z m8983 3 c-7 -2 -19 -2 -25 0 -7 3 -2 5 12 5
14 0 19 -2 13 -5z m3787 -82 c25 -23 66 -58 93 -78 26 -20 47 -41 47 -45 0 -4
5 -8 11 -8 6 0 20 -11 31 -25 11 -14 24 -25 30 -25 6 0 16 -7 23 -16 9 -13 16
-14 32 -6 21 11 37 6 27 -9 -2 -4 -11 -6 -19 -2 -26 9 -16 -11 15 -33 34 -23
243 -225 238 -229 -2 -2 -43 34 -91 80 -108 101 -412 366 -484 420 -29 22 -52
44 -53 48 0 11 43 -21 100 -72z m-9313 63 c-3 -3 -12 -4 -19 -1 -8 3 -5 6 6 6
11 1 17 -2 13 -5z m-47 -14 c-8 -5 -19 -10 -25 -10 -5 0 -3 5 5 10 8 5 20 10
25 10 6 0 3 -5 -5 -10z m240 6 c0 -2 -7 -7 -16 -10 -8 -3 -12 -2 -9 4 6 10 25
14 25 6z m-45 -16 c-3 -5 -12 -10 -18 -10 -7 0 -6 4 3 10 19 12 23 12 15 0z
m5595 -31 c10 -6 4 -7 -15 -3 -16 4 -37 11 -45 15 -10 6 -4 7 15 3 17 -4 37
-11 45 -15z m3740 0 c0 -6 -4 -7 -10 -4 -5 3 -10 11 -10 16 0 6 5 7 10 4 6 -3
10 -11 10 -16z m-3470 -31 c0 -4 -18 1 -40 12 -22 11 -40 22 -40 24 0 3 18 -3
40 -11 22 -9 40 -20 40 -25z m-6180 28 c0 -2 -7 -7 -16 -10 -8 -3 -12 -2 -9 4
6 10 25 14 25 6z m9690 -27 c0 -4 -7 -6 -15 -3 -8 4 -15 10 -15 15 0 4 7 6 15
3 8 -4 15 -10 15 -15z m-9757 0 c-7 -7 -42 -23 -79 -35 -81 -29 -84 -32 -60
-50 17 -12 18 -14 3 -14 -9 0 -17 5 -17 10 0 17 -25 11 -97 -21 -37 -17 -70
-31 -73 -31 -3 -1 -21 -8 -40 -16 -19 -8 -36 -13 -36 -11 -1 2 -10 -3 -20 -12
-11 -9 -32 -19 -49 -23 -30 -6 -30 -6 5 13 50 27 248 113 365 160 117 46 112
44 98 30z m6282 -9 c3 -5 2 -10 -4 -10 -5 0 -13 5 -16 10 -3 6 -2 10 4 10 5 0
13 -4 16 -10z m-9785 -4 c0 -3 -4 -8 -10 -11 -5 -3 -10 -1 -10 4 0 6 5 11 10
11 6 0 10 -2 10 -4z m9840 -16 c0 -5 -7 -7 -15 -4 -8 4 -15 8 -15 10 0 2 7 4
15 4 8 0 15 -4 15 -10z m56 -26 c18 -14 18 -14 -6 -3 -31 14 -36 19 -24 19 6
0 19 -7 30 -16z m3449 -14 c10 -11 14 -20 9 -20 -5 0 -17 9 -27 20 -9 11 -13
20 -8 20 4 0 16 -9 26 -20z m-13240 -10 c-3 -5 -16 -15 -28 -21 -19 -9 -19 -8
3 10 28 23 34 26 25 11z m3405 0 c-20 -13 -33 -13 -25 0 3 6 14 10 23 10 15 0
15 -2 2 -10z m6486 -16 c18 -14 18 -14 -6 -3 -31 14 -36 19 -24 19 6 0 19 -7
30 -16z m-6536 -3 c-8 -5 -26 -11 -40 -15 -21 -5 -20 -3 5 9 32 15 60 20 35 6z
m9925 -11 c3 -5 -1 -10 -10 -10 -9 0 -13 5 -10 10 3 6 8 10 10 10 2 0 7 -4 10
-10z m-10005 -20 c-8 -5 -19 -10 -25 -10 -5 0 -3 5 5 10 8 5 20 10 25 10 6 0
3 -5 -5 -10z m10042 -17 c20 -18 24 -33 7 -33 -5 0 -7 5 -3 11 5 9 -1 10 -22
5 -19 -4 -24 -3 -15 3 7 5 10 14 7 20 -11 17 5 13 26 -6z m-10082 3 c0 -2 -7
-7 -16 -10 -8 -3 -12 -2 -9 4 6 10 25 14 25 6z m6720 -16 c0 -5 -2 -10 -4 -10
-3 0 -8 5 -11 10 -3 6 -1 10 4 10 6 0 11 -4 11 -10z m85 -8 c-3 -3 -11 0 -18
7 -9 10 -8 11 6 5 10 -3 15 -9 12 -12z m-6880 -12 c-3 -5 -12 -10 -18 -10 -7
0 -6 4 3 10 19 12 23 12 15 0z m6770 -10 c3 -6 -1 -7 -9 -4 -18 7 -21 14 -7
14 6 0 13 -4 16 -10z m170 0 c3 -6 -1 -7 -9 -4 -18 7 -21 14 -7 14 6 0 13 -4
16 -10z m-10235 -3 c0 -2 -10 -12 -22 -23 l-23 -19 19 23 c18 21 26 27 26 19z
m3260 -1 c0 -2 -7 -7 -16 -10 -8 -3 -12 -2 -9 4 6 10 25 14 25 6z m10204 -4
c3 -5 -1 -9 -9 -9 -8 0 -12 4 -9 9 3 4 7 8 9 8 2 0 6 -4 9 -8z m87 -39 l24
-28 -30 25 c-16 14 -32 26 -34 28 -2 1 0 2 6 2 5 0 20 -12 34 -27z m-10582 -7
c-2 -2 -15 -9 -29 -15 -24 -11 -24 -11 -6 3 16 13 49 24 35 12z m10556 -6 c3
-6 -1 -7 -9 -4 -18 7 -21 14 -7 14 6 0 13 -4 16 -10z m-13595 -3 c0 -2 -12
-14 -27 -28 l-28 -24 24 28 c23 25 31 32 31 24z m-75 -77 c-10 -11 -21 -18
-23 -15 -3 3 3 12 14 20 27 20 30 18 9 -5z m-55 -44 c0 -2 -8 -10 -17 -17 -16
-13 -17 -12 -4 4 13 16 21 21 21 13z m-60 -60 c0 -2 -8 -10 -17 -17 -16 -13
-17 -12 -4 4 13 16 21 21 21 13z m11035 -26 c3 -6 -1 -7 -9 -4 -18 7 -21 14
-7 14 6 0 13 -4 16 -10z m-11075 -14 c0 -2 -7 -7 -16 -10 -8 -3 -12 -2 -9 4 6
10 25 14 25 6z m14037 -97 c54 -53 116 -116 138 -140 22 -24 -25 19 -105 96
-79 77 -147 142 -150 144 -3 2 0 2 7 0 6 -2 56 -47 110 -100z m-14077 68 c0
-2 -10 -12 -22 -23 l-23 -19 19 23 c18 21 26 27 26 19z m2790 -17 c-24 -19
-40 -25 -40 -15 0 5 51 34 60 34 3 0 -6 -8 -20 -19z m8450 -16 c0 -2 -13 2
-30 11 -16 9 -30 18 -30 21 0 2 14 -2 30 -11 17 -9 30 -18 30 -21z m-8500 -9
c0 -2 -10 -9 -22 -15 -22 -11 -22 -10 -4 4 21 17 26 19 26 11z m8550 -16 c17
-13 18 -17 5 -10 -33 17 -51 31 -40 31 6 0 21 -10 35 -21z m-11380 -33 c0 -2
-8 -10 -17 -17 -16 -13 -17 -12 -4 4 13 16 21 21 21 13z m2684 -41 c-10 -8
-23 -15 -28 -15 -6 0 -1 7 10 15 10 8 23 15 28 15 6 0 1 -7 -10 -15z m-2744
-18 c0 -2 -12 -14 -27 -28 l-28 -24 24 28 c23 25 31 32 31 24z m14490 -192
c19 -19 32 -35 29 -35 -3 0 -20 16 -39 35 -19 19 -32 35 -29 35 3 0 20 -16 39
-35z m-2535 -35 c3 -6 -1 -7 -9 -4 -18 7 -21 14 -7 14 6 0 13 -4 16 -10z
m-4208 -787 c-3 -10 -76 -225 -162 -478 -86 -253 -269 -793 -407 -1200 -137
-407 -259 -769 -271 -804 l-22 -63 -170 1 c-93 1 -170 3 -172 5 -3 2 61 195
271 816 64 190 141 417 171 505 29 88 135 400 234 694 100 294 181 536 181
538 0 1 79 3 176 3 163 0 176 -1 171 -17z m-1446 -575 c2 -91 1 -145 0 -221
l-1 -38 -127 -61 c-278 -132 -326 -154 -533 -248 -118 -53 -237 -107 -264
-119 -43 -19 -48 -23 -35 -36 8 -8 88 -47 179 -88 148 -67 276 -127 661 -310
107 -51 117 -58 123 -88 8 -40 8 -304 0 -312 -7 -6 -94 34 -409 188 -121 60
-380 186 -575 280 l-355 172 -3 165 -2 165 147 71 c190 91 426 205 843 408
184 90 338 164 343 164 4 0 8 -42 8 -92z m1780 58 c41 -18 176 -84 301 -145
125 -61 274 -133 331 -159 57 -27 221 -107 365 -177 l262 -128 0 -167 0 -166
-352 -169 c-194 -93 -494 -237 -666 -322 -172 -84 -315 -153 -318 -153 -2 0
-4 79 -4 175 l0 176 73 33 c39 18 126 59 192 91 204 98 304 144 485 227 193
87 226 106 214 118 -5 4 -124 60 -264 125 -140 64 -355 164 -477 222 l-223
106 -2 131 c-1 72 -3 150 -4 174 -1 23 2 42 6 42 4 0 41 -15 81 -34z m4319
-3187 c215 -34 374 -140 457 -303 25 -49 53 -158 53 -208 l0 -28 -213 0 -213
0 -11 43 c-25 94 -100 141 -223 142 -59 0 -85 -5 -123 -24 -72 -35 -105 -111
-75 -176 23 -51 109 -87 328 -136 164 -37 244 -68 332 -126 146 -96 218 -230
218 -405 0 -229 -156 -421 -401 -491 -211 -61 -511 -37 -696 57 -174 87 -284
258 -295 456 l-3 55 210 0 209 0 22 -63 c39 -115 108 -163 244 -170 113 -6
164 9 217 63 36 35 43 49 43 81 0 56 -38 107 -102 138 -29 14 -128 43 -220 65
-278 67 -424 140 -501 253 -48 70 -67 127 -74 218 -17 234 137 440 393 526
126 42 290 55 424 33z m-10383 -94 c151 -377 363 -917 363 -925 0 -50 45 59
354 863 l54 139 288 1 289 1 0 -852 0 -853 -217 -2 -218 -2 -2 530 -3 530 -19
-50 c-11 -27 -60 -156 -109 -285 -49 -129 -122 -320 -161 -425 -40 -104 -79
-208 -87 -230 l-15 -40 -144 0 -144 0 -86 225 c-48 124 -136 354 -196 512
l-109 287 -5 -525 -5 -526 -210 0 -210 1 -3 843 c-1 464 0 848 2 853 2 6 106
10 282 10 l278 0 33 -80z m2715 -80 c31 -88 109 -313 173 -500 63 -187 169
-497 235 -690 66 -192 120 -352 120 -355 0 -3 -107 -4 -237 -3 l-238 2 -47
138 c-25 76 -52 153 -58 171 l-11 32 -288 0 -287 0 -55 -171 -54 -170 -233 -2
c-127 -1 -232 2 -232 6 0 22 557 1675 571 1692 4 6 115 10 295 10 l289 0 57
-160z m1856 -16 l2 -176 -88 -6 c-49 -4 -159 -4 -245 0 l-157 6 -2 -678 -3
-677 -217 -2 -218 -1 -2 674 -3 674 -210 0 c-115 0 -225 2 -242 4 l-33 5 0
172 c0 95 2 175 5 178 3 3 321 5 708 4 l702 -2 3 -175z m630 -157 l2 -332 303
2 302 3 1 330 c1 239 5 330 13 329 6 -1 106 -2 221 -2 l210 -2 -2 -850 -3
-850 -218 -3 -217 -2 -2 170 c-1 94 -2 248 -2 343 l0 172 -303 0 -303 0 0
-344 0 -344 -220 2 -220 1 0 295 c-1 162 -2 531 -4 820 -1 289 -1 541 1 560
l5 35 216 0 217 0 3 -333z m2410 330 l72 -2 0 -175 0 -175 -87 0 c-49 -1 -218
-2 -378 -3 l-290 -2 -3 -152 -3 -153 346 0 345 0 0 -180 0 -180 -345 0 -345 0
0 -160 0 -160 378 -2 377 -3 0 -179 0 -179 -595 2 -595 1 -3 843 c-1 463 0
847 2 852 3 9 899 15 1124 7z m727 -4 c2 -7 6 -265 8 -573 3 -392 8 -571 17
-598 16 -54 71 -111 133 -138 74 -33 193 -33 260 0 55 27 100 77 124 140 15
41 18 104 21 611 l3 565 220 0 219 0 0 -590 c0 -657 0 -655 -67 -792 -53 -107
-160 -215 -263 -265 -137 -66 -173 -73 -385 -73 -171 0 -197 2 -265 23 -184
58 -321 165 -390 306 -69 138 -70 149 -70 803 0 394 3 582 10 585 6 2 103 4
215 6 164 3 206 1 210 -10z m-6722 -2244 c302 -69 506 -286 583 -619 24 -104
25 -366 1 -471 -42 -186 -107 -306 -231 -429 -73 -73 -108 -99 -176 -133 -120
-58 -184 -74 -336 -79 -266 -10 -470 68 -631 241 -87 93 -128 162 -169 284
-43 128 -58 244 -51 412 7 167 29 259 98 399 88 179 236 307 429 371 151 51
326 59 483 24z m-2093 -354 c0 -192 3 -350 8 -350 4 0 18 16 32 34 43 57 484
638 496 652 9 11 63 14 263 14 138 0 251 -2 251 -4 0 -5 -63 -89 -378 -504
-169 -223 -183 -246 -173 -268 5 -13 68 -115 138 -226 70 -112 196 -315 280
-453 l153 -250 -252 -3 c-139 -1 -257 -1 -263 2 -6 2 -30 37 -54 77 -273 463
-345 578 -358 568 -7 -6 -42 -50 -78 -99 l-65 -87 0 -232 0 -231 -220 0 -220
0 0 855 0 855 220 0 220 0 0 -350z m3807 335 c319 -60 506 -351 437 -682 -28
-135 -103 -249 -213 -324 -28 -19 -51 -37 -51 -41 0 -4 51 -105 114 -225 62
-120 136 -264 165 -320 l51 -103 -242 0 -243 0 -145 288 -145 287 -92 3 -93 3
0 -291 0 -290 -220 0 -220 0 -1 820 c-1 451 -1 831 -1 845 0 14 0 30 1 35 1 6
145 10 410 10 320 0 426 -3 488 -15z m1363 -325 c74 -184 164 -410 200 -502
36 -92 68 -168 71 -168 6 0 162 388 320 798 l82 212 283 0 284 0 2 -855 3
-855 -217 0 -218 0 -2 528 c-3 503 -4 525 -20 482 -9 -25 -57 -153 -108 -285
-50 -132 -128 -337 -172 -455 -44 -118 -84 -223 -89 -232 -9 -16 -26 -18 -148
-18 l-138 0 -93 238 c-133 341 -210 540 -261 677 l-44 120 -3 -527 -2 -528
-220 0 -220 0 0 855 0 855 287 -2 287 -3 136 -335z m2592 230 c21 -58 114
-328 207 -600 93 -272 206 -598 251 -725 45 -126 84 -240 87 -253 l5 -22 -243
2 -243 3 -51 165 -52 165 -290 3 -290 2 -32 -102 c-18 -57 -42 -133 -54 -170
l-21 -68 -238 0 c-131 0 -238 2 -238 4 0 2 7 23 16 47 21 59 343 1005 456
1343 49 148 94 280 99 293 l9 23 292 -2 293 -3 37 -105z m1330 -222 c124 -183
265 -393 314 -465 48 -73 91 -133 96 -133 4 0 8 209 8 465 l0 465 220 0 220 0
0 -855 0 -855 -193 0 c-172 0 -196 2 -209 18 -8 9 -149 217 -313 462 -164 245
-304 452 -312 460 -12 13 -13 -50 -11 -463 l3 -477 -222 0 -223 0 0 855 0 855
198 0 198 0 226 -332z m1592 175 c59 -87 203 -299 319 -470 l212 -312 3 469 2
470 220 0 220 0 0 -855 0 -855 -194 0 -193 0 -85 128 c-155 231 -526 777 -545
800 -18 23 -18 13 -15 -452 l3 -476 -225 0 -226 0 0 855 0 855 199 0 198 0
107 -157z m-9634 -2253 c46 -24 85 -66 106 -115 15 -33 19 -78 22 -247 6 -294
-12 -354 -121 -414 -97 -52 -241 -33 -307 42 -62 71 -64 85 -65 349 0 213 2
244 18 277 34 67 94 113 167 129 50 11 139 0 180 -21z m-654 -4 c65 -30 114
-100 114 -161 0 -23 -4 -25 -49 -25 l-48 0 -7 40 c-7 47 -45 76 -112 86 -93
14 -164 -41 -164 -126 0 -43 4 -51 39 -83 25 -23 66 -44 122 -62 166 -55 217
-105 226 -218 7 -77 -8 -126 -50 -173 -60 -69 -161 -97 -269 -75 -103 22 -188
103 -188 179 0 32 0 32 49 32 46 0 49 -2 55 -30 21 -106 212 -136 284 -45 26
33 29 102 7 145 -23 44 -58 66 -161 100 -160 54 -214 111 -214 228 0 78 17
121 64 158 50 41 90 52 176 53 59 1 86 -4 126 -23z m1437 15 c15 -1 18 -8 15
-43 l-3 -43 -187 -3 -188 -2 0 -135 0 -135 170 0 c155 0 170 -2 171 -17 0 -10
2 -28 5 -40 l4 -23 -159 0 c-88 0 -166 -3 -175 -6 -14 -5 -16 -31 -16 -186 l0
-179 -47 3 -48 3 -3 402 -2 402 102 3 c87 3 297 2 361 -1z m697 -47 l0 -43
-111 -3 -112 -3 2 -358 2 -358 -52 3 -53 3 0 358 0 357 -113 0 -113 0 0 45 0
45 208 2 c114 2 237 1 275 0 l67 -4 0 -44z m5205 37 c51 -23 101 -79 114 -128
17 -60 16 -63 -37 -63 -47 0 -48 1 -62 42 -19 54 -63 81 -133 81 -60 1 -109
-21 -134 -60 -16 -24 -18 -54 -18 -258 0 -208 2 -233 19 -261 52 -87 203 -93
257 -10 7 11 16 58 19 104 l5 82 -83 0 -83 0 3 43 3 42 128 3 127 3 0 -128 c0
-116 -2 -133 -24 -173 -77 -146 -304 -172 -413 -47 -53 61 -63 114 -63 346 0
113 5 222 10 242 13 45 71 114 119 139 50 26 189 27 246 1z m2113 10 c8 -1 12
-17 12 -46 l0 -45 -191 0 -192 0 7 -37 c3 -21 6 -77 6 -125 l0 -88 160 0 c175
0 162 5 163 -60 l1 -24 -164 -1 -165 0 0 -140 0 -140 135 -6 c74 -4 159 -7
188 -8 l53 -1 -3 -42 -3 -43 -235 0 -234 0 -2 402 -1 402 116 3 c100 3 311 2
349 -1z m-7131 -108 c16 -153 52 -480 59 -533 9 -62 19 -30 27 80 4 47 20 191
37 320 16 129 30 236 30 238 0 1 27 2 60 2 59 0 59 0 65 -32 8 -52 43 -312 60
-453 19 -158 26 -198 33 -190 5 5 24 160 57 475 22 215 17 200 70 200 25 0 45
-1 45 -3 0 -5 -61 -468 -83 -632 l-23 -170 -64 0 -64 0 -23 160 c-12 88 -31
245 -42 349 -12 104 -23 191 -26 194 -9 9 -13 -22 -54 -357 -27 -226 -44 -337
-53 -343 -7 -4 -35 -7 -63 -6 l-49 3 -18 140 c-10 77 -34 253 -53 390 -19 138
-35 256 -35 263 0 8 17 12 48 12 l48 0 11 -107z m991 0 c158 -555 192 -670
198 -686 6 -16 1 -18 -52 -15 l-58 3 -8 40 c-5 22 -18 71 -29 108 l-20 68
-132 -3 -132 -3 -26 -105 -27 -105 -39 -1 c-47 -1 -74 6 -68 16 2 4 11 32 19
61 8 30 57 204 110 386 53 183 96 335 96 338 0 3 31 5 69 5 l68 0 31 -107z
m707 88 c49 -23 99 -74 119 -123 22 -52 20 -140 -3 -187 -23 -45 -81 -98 -116
-107 -14 -3 -25 -10 -25 -15 0 -5 38 -86 85 -179 47 -93 85 -172 85 -175 0 -7
-70 -6 -95 1 -19 5 -72 107 -149 287 l-25 57 -75 0 -76 0 0 -175 0 -175 -50 0
-50 0 0 383 c1 210 3 392 7 405 5 22 7 22 167 22 135 0 167 -3 201 -19z m783
-23 l-3 -43 -188 -3 -188 -2 3 -123 3 -122 168 -3 167 -2 0 -40 0 -40 -167 -2
-168 -3 0 -145 0 -145 130 3 c72 2 156 0 188 -3 l58 -7 -3 -42 -3 -41 -237 -3
-238 -2 0 405 0 405 241 0 240 0 -3 -42z m1322 -3 l0 -45 -185 0 -186 0 3
-122 3 -123 163 -3 163 -3 -3 -40 -3 -41 -162 1 -163 2 0 -148 0 -148 188 0
187 0 0 -45 0 -45 -240 0 -240 0 0 395 c0 217 1 398 3 403 2 4 109 7 238 7
l234 0 0 -45z m329 -7 c11 -29 45 -114 76 -188 31 -74 79 -196 107 -270 28
-74 53 -138 57 -142 3 -4 4 142 2 323 l-3 330 48 -3 c27 -2 48 -6 47 -10 -2
-5 -3 -186 -3 -403 l0 -396 -60 3 -60 2 -29 71 c-93 224 -128 312 -177 444
-30 80 -58 149 -62 153 -4 4 -5 -146 -4 -332 l4 -340 -51 0 -51 0 0 405 0 405
69 0 70 0 20 -52z m1641 7 l0 -45 -85 0 -85 0 2 -312 3 -313 88 -3 88 -3 -5
-42 c-3 -23 -5 -43 -5 -44 -2 -6 -397 -2 -418 3 -19 5 -23 13 -23 45 l0 39 85
0 85 0 0 318 0 318 -85 -4 -85 -5 0 47 0 46 220 0 220 0 0 -45z m471 -285 c71
-178 131 -325 132 -326 1 -1 0 146 -2 327 l-3 329 48 0 49 0 0 -403 0 -402
-64 0 -63 0 -94 235 c-52 129 -108 276 -126 325 -17 50 -35 95 -41 100 -6 6
-6 -116 -2 -327 l7 -338 -51 0 -51 0 0 405 0 406 65 -3 65 -3 131 -325z m1567
288 l-3 -43 -185 -2 -185 -2 2 -117 c1 -84 5 -119 15 -125 7 -5 79 -9 161 -9
l147 0 0 -42 0 -43 -143 2 c-79 1 -153 0 -165 -4 -21 -5 -22 -9 -22 -144 l0
-139 138 -1 c75 0 160 -2 187 -3 l50 -3 0 -44 0 -44 -235 0 -235 0 -3 403 -2
402 240 0 241 0 -3 -42z m534 30 c22 -6 59 -29 83 -50 119 -105 91 -305 -52
-371 -13 -6 -23 -17 -23 -25 0 -8 36 -88 80 -179 44 -91 80 -168 80 -169 0
-11 -109 -2 -117 9 -8 11 -88 186 -132 290 l-20 48 -72 -3 -72 -3 -3 -170 -2
-170 -51 -3 -51 -3 0 405 0 406 156 0 c91 0 173 -5 196 -12z m-4769 -1969 c65
-12 135 -50 179 -96 74 -76 89 -160 63 -343 -21 -145 -17 -207 16 -254 35 -52
108 -75 237 -76 l72 0 0 -75 0 -75 -57 0 c-78 0 -187 -25 -222 -49 -63 -45
-73 -117 -45 -302 34 -221 -11 -330 -165 -402 -53 -25 -80 -31 -163 -35 l-99
-5 3 69 3 69 67 7 c79 7 133 31 162 71 18 24 21 43 21 125 -1 53 -5 142 -9
197 -14 164 23 242 144 302 37 19 56 33 44 33 -11 0 -40 13 -65 28 -103 66
-137 142 -125 286 20 241 20 250 -2 299 -31 69 -69 88 -202 101 l-35 3 -3 72
-3 72 68 -6 c37 -4 89 -11 116 -16z m-769 -686 c143 -130 637 -606 633 -609
-2 -2 -59 -8 -128 -14 -160 -14 -155 -12 -131 -52 27 -44 112 -235 112 -251 0
-9 -96 -57 -192 -95 -4 -2 -8 1 -8 7 0 6 -27 67 -60 136 -33 69 -60 130 -60
135 0 21 -23 7 -118 -70 -54 -44 -101 -80 -103 -80 -2 0 -4 211 -4 470 0 258
2 470 4 470 2 0 27 -21 55 -47z m-1673 -3310 c6 -6 8 -29 4 -55 l-7 -45 -69 5
c-73 5 -107 -8 -129 -48 -6 -11 -17 -72 -24 -135 -11 -93 -18 -122 -39 -154
-30 -45 -100 -83 -137 -75 -19 4 -15 0 14 -18 22 -12 48 -40 59 -60 32 -64 32
-105 -1 -204 -42 -125 -44 -139 -28 -178 14 -33 75 -76 108 -76 33 -1 39 -15
27 -64 -9 -35 -15 -45 -28 -42 -9 2 -41 11 -72 20 -103 29 -160 88 -174 182
-5 30 1 63 29 143 45 131 47 187 9 223 -26 23 -82 46 -156 63 -27 6 -28 8 -22
48 4 23 10 45 14 48 3 3 47 1 98 -4 139 -16 158 3 175 173 12 127 23 164 60
206 48 54 79 64 186 60 51 -2 98 -8 103 -13z m944 -144 c80 -30 115 -56 135
-102 25 -54 25 -111 0 -215 -27 -113 -26 -153 5 -191 20 -22 40 -32 83 -41 92
-19 114 -25 113 -32 -1 -5 -1 -26 -1 -48 l0 -40 -95 0 c-90 0 -96 -1 -127 -29
l-33 -29 -5 -149 c-6 -171 -16 -197 -91 -248 -40 -27 -53 -30 -141 -33 l-98
-4 0 29 c0 64 8 73 64 73 58 0 112 27 125 63 4 12 11 74 14 138 3 63 11 127
16 142 15 39 85 105 123 115 l33 9 -36 15 c-43 19 -75 57 -91 110 -10 34 -8
54 10 136 12 54 22 114 22 134 0 50 -32 85 -100 107 -59 19 -66 30 -55 87 6
34 7 35 43 28 20 -4 60 -15 87 -25z m2730 -81 c45 -29 139 -91 210 -137 142
-92 185 -127 185 -150 0 -9 -9 -31 -21 -50 -18 -29 -298 -411 -318 -434 -9 -9
-91 51 -91 67 0 10 134 193 242 330 21 27 38 54 36 61 -2 7 -73 59 -158 117
-225 152 -239 162 -240 172 0 15 50 76 63 76 7 0 48 -24 92 -52z m-1059 -124
c19 -15 34 -31 34 -36 0 -5 -62 -80 -137 -166 -76 -86 -148 -169 -161 -184
l-23 -27 89 -73 c49 -40 135 -110 191 -156 l102 -83 -21 -26 c-46 -59 -50 -59
-138 10 -154 119 -327 260 -344 280 -38 42 -25 67 108 219 146 165 245 268
257 268 5 0 24 -12 43 -26z"/>
<path d="M9671 19587 c-46 -23 -64 -60 -69 -144 -8 -146 50 -240 141 -229 77
9 123 90 115 199 -7 83 -37 151 -77 171 -36 19 -77 20 -110 3z"/>
<path d="M11718 19268 c-45 -9 -81 -53 -73 -87 16 -66 93 -93 163 -57 41 21
60 51 64 101 l3 40 -62 5 c-34 3 -77 2 -95 -2z"/>
<path d="M6304 18759 c-26 -27 -29 -37 -28 -92 0 -73 29 -140 84 -198 32 -34
43 -39 83 -39 53 0 99 31 115 79 9 24 6 39 -17 88 -15 32 -33 74 -41 93 -7 19
-24 50 -37 68 -22 29 -29 32 -77 32 -45 0 -56 -4 -82 -31z"/>
<path d="M6983 19050 c-18 -10 -39 -30 -48 -44 -18 -28 -26 -122 -10 -119 6 1
55 18 110 38 55 20 106 38 113 40 19 7 -15 63 -53 86 -38 24 -72 24 -112 -1z"/>
<path d="M9980 18596 c0 -2 7 -7 16 -10 8 -3 12 -2 9 4 -6 10 -25 14 -25 6z"/>
<path d="M10145 18590 c27 -12 43 -12 25 0 -8 5 -22 9 -30 9 -10 0 -8 -3 5 -9z"/>
<path d="M10220 18590 c19 -13 30 -13 30 0 0 6 -10 10 -22 10 -19 0 -20 -2 -8
-10z"/>
<path d="M10270 18590 c0 -5 5 -10 11 -10 5 0 7 5 4 10 -3 6 -8 10 -11 10 -2
0 -4 -4 -4 -10z"/>
<path d="M10333 18593 c9 -2 23 -2 30 0 6 3 -1 5 -18 5 -16 0 -22 -2 -12 -5z"/>
<path d="M10390 18590 c15 -10 198 -15 188 -4 -3 3 -50 7 -104 10 -68 3 -94 1
-84 -6z"/>
<path d="M10620 18580 c34 -11 60 -11 35 0 -11 5 -29 8 -40 8 -16 0 -15 -2 5
-8z"/>
<path d="M10968 18553 c6 -2 18 -2 25 0 6 3 1 5 -13 5 -14 0 -19 -2 -12 -5z"/>
<path d="M11034 18553 c3 -6 -1 -13 -11 -16 -10 -3 8 -5 40 -6 36 -1 57 3 57
10 0 8 -12 10 -34 6 -19 -3 -39 0 -46 6 -10 9 -11 9 -6 0z"/>
<path d="M9338 18543 c7 -3 16 -2 19 1 4 3 -2 6 -13 5 -11 0 -14 -3 -6 -6z"/>
<path d="M11136 18528 c6 -19 3 -20 -34 -14 -23 3 -43 2 -46 -3 -7 -11 50 -19
169 -24 55 -3 71 -2 40 2 -44 6 -47 7 -20 12 29 6 28 6 -7 8 -52 2 -48 21 4
21 64 0 41 8 -40 13 -70 5 -72 4 -66 -15z"/>
<path d="M9218 18533 c6 -2 18 -2 25 0 6 3 1 5 -13 5 -14 0 -19 -2 -12 -5z"/>
<path d="M9273 18533 c9 -2 23 -2 30 0 6 3 -1 5 -18 5 -16 0 -22 -2 -12 -5z"/>
<path d="M9465 18530 c3 -5 10 -10 16 -10 5 0 9 5 9 10 0 6 -7 10 -16 10 -8 0
-12 -4 -9 -10z"/>
<path d="M10773 18528 c16 -10 204 -10 210 0 3 4 -46 7 -108 7 -62 0 -108 -3
-102 -7z"/>
<path d="M9053 18520 c-72 -11 -60 -20 18 -15 41 3 86 5 102 6 15 0 27 4 27 9
0 11 -77 10 -147 0z"/>
<path d="M9431 18522 c-1 -10 -16 -13 -61 -10 -38 2 -60 -1 -60 -8 0 -6 22 -9
63 -6 70 5 71 6 64 24 -4 11 -6 10 -6 0z"/>
<path d="M9548 18523 c12 -2 30 -2 40 0 9 3 -1 5 -23 4 -22 0 -30 -2 -17 -4z"/>
<path d="M11305 18520 c-3 -5 1 -10 9 -10 8 0 18 5 21 10 3 6 -1 10 -9 10 -8
0 -18 -4 -21 -10z"/>
<path d="M10998 18513 c6 -2 18 -2 25 0 6 3 1 5 -13 5 -14 0 -19 -2 -12 -5z"/>
<path d="M11353 18514 c3 -4 25 -8 48 -9 29 -3 38 -1 29 6 -16 10 -87 13 -77
3z"/>
<path d="M11458 18503 c7 -3 16 -2 19 1 4 3 -2 6 -13 5 -11 0 -14 -3 -6 -6z"/>
<path d="M9090 18489 c-59 -5 -44 -14 20 -11 66 2 175 13 179 17 5 6 -105 3
-199 -6z"/>
<path d="M11407 18483 c-16 -15 -5 -23 31 -21 37 1 37 1 4 5 -18 2 -30 9 -27
14 7 10 1 12 -8 2z"/>
<path d="M8606 18444 c-69 -13 -95 -24 -60 -24 10 0 30 -3 44 -5 22 -5 23 -4
5 5 -15 7 -9 8 24 4 31 -4 41 -3 37 5 -5 7 6 11 31 11 28 0 34 3 23 10 -18 12
-17 12 -104 -6z"/>
<path d="M8505 18420 c3 -5 8 -10 11 -10 2 0 4 5 4 10 0 6 -5 10 -11 10 -5 0
-7 -4 -4 -10z"/>
<path d="M8518 18393 c7 -3 16 -2 19 1 4 3 -2 6 -13 5 -11 0 -14 -3 -6 -6z"/>
<path d="M16480 18299 c0 -5 5 -7 10 -4 6 3 10 8 10 11 0 2 -4 4 -10 4 -5 0
-10 -5 -10 -11z"/>
<path d="M7650 18160 c12 -9 9 -10 -14 -8 -17 2 -31 -2 -34 -10 -3 -10 3 -11
25 -6 39 10 70 23 56 23 -6 1 -20 4 -30 7 -15 5 -16 4 -3 -6z"/>
<path d="M7448 12122 c-10 -37 -49 -166 -87 -287 l-68 -220 94 -3 c52 -1 133
-1 182 0 l87 3 -73 235 c-40 129 -80 259 -89 288 -8 28 -18 52 -22 52 -4 0
-15 -30 -24 -68z"/>
<path d="M6374 9991 c-150 -71 -223 -248 -211 -511 11 -229 86 -364 236 -421
72 -27 192 -23 262 8 144 64 214 214 213 458 0 202 -41 324 -138 412 -66 60
-128 83 -226 83 -62 0 -86 -5 -136 -29z"/>
<path d="M7980 9821 l0 -211 138 0 c162 0 204 10 253 59 63 62 75 162 30 249
-43 84 -92 104 -278 110 l-143 5 0 -212z"/>
<path d="M12001 9753 c-30 -98 -69 -227 -87 -286 -19 -60 -34 -111 -34 -113 0
-2 83 -4 184 -4 l183 0 -79 253 c-43 138 -83 269 -89 290 -5 20 -13 37 -17 37
-4 0 -32 -80 -61 -177z"/>
<path d="M5500 7896 c-43 -16 -77 -63 -85 -121 -4 -23 -5 -128 -3 -231 4 -211
11 -239 71 -271 43 -22 124 -22 159 1 61 40 63 49 63 301 0 253 -4 274 -60
306 -41 25 -103 31 -145 15z"/>
<path d="M8230 7864 c0 -5 -85 -328 -96 -366 -5 -16 4 -18 100 -18 86 0 106 3
106 15 0 13 -55 244 -81 338 -5 20 -14 37 -19 37 -6 0 -10 -3 -10 -6z"/>
<path d="M8775 7890 c-7 -11 -5 -233 2 -261 5 -17 15 -19 105 -19 117 0 149
12 178 70 23 46 25 79 6 123 -24 56 -57 78 -133 88 -91 11 -150 11 -158 -1z"/>
<path d="M15447 7893 c-9 -8 -9 -161 0 -231 l6 -54 109 4 110 3 35 39 c34 37
35 40 31 102 -3 56 -8 69 -34 95 -24 24 -44 32 -95 39 -76 11 -153 13 -162 3z"/>
<path d="M10157 4978 c-8 -355 -8 -438 -3 -438 3 0 36 26 73 58 113 97 98 104
178 -74 62 -137 71 -153 90 -148 28 9 75 33 75 40 0 2 -15 35 -34 72 -52 103
-99 222 -91 230 4 4 54 12 113 17 l106 10 -60 60 c-33 33 -144 141 -248 240
-103 99 -189 181 -191 183 -1 1 -5 -111 -8 -250z"/>
<path d="M11928 20323 c6 -2 18 -2 25 0 6 3 1 5 -13 5 -14 0 -19 -2 -12 -5z"/>
<path d="M11998 20313 c7 -3 16 -2 19 1 4 3 -2 6 -13 5 -11 0 -14 -3 -6 -6z"/>
<path d="M8408 20303 c6 -2 18 -2 25 0 6 3 1 5 -13 5 -14 0 -19 -2 -12 -5z"/>
<path d="M12048 20303 c6 -2 18 -2 25 0 6 3 1 5 -13 5 -14 0 -19 -2 -12 -5z"/>
<path d="M12108 20293 c6 -2 18 -2 25 0 6 3 1 5 -13 5 -14 0 -19 -2 -12 -5z"/>
<path d="M8318 20283 c7 -3 16 -2 19 1 4 3 -2 6 -13 5 -11 0 -14 -3 -6 -6z"/>
<path d="M12158 20283 c6 -2 18 -2 25 0 6 3 1 5 -13 5 -14 0 -19 -2 -12 -5z"/>
<path d="M8195 20265 c-66 -17 -37 -17 45 0 36 7 52 13 35 13 -16 0 -52 -6
-80 -13z"/>
<path d="M12218 20273 c7 -3 16 -2 19 1 4 3 -2 6 -13 5 -11 0 -14 -3 -6 -6z"/>
<path d="M12290 20255 c25 -6 86 -20 135 -30 50 -10 101 -20 115 -23 14 -2 22
-2 19 2 -6 7 -282 67 -301 65 -7 -1 7 -7 32 -14z"/>
<path d="M8108 20243 c6 -2 18 -2 25 0 6 3 1 5 -13 5 -14 0 -19 -2 -12 -5z"/>
<path d="M8030 20230 c-20 -6 -21 -8 -5 -8 11 0 29 3 40 8 25 11 -1 11 -35 0z"/>
<path d="M7968 20213 c7 -3 16 -2 19 1 4 3 -2 6 -13 5 -11 0 -14 -3 -6 -6z"/>
<path d="M7928 20203 c7 -3 16 -2 19 1 4 3 -2 6 -13 5 -11 0 -14 -3 -6 -6z"/>
<path d="M7830 20187 c-25 -6 -38 -12 -30 -14 8 -1 38 3 65 11 58 17 31 19
-35 3z"/>
<path d="M12680 20169 c63 -16 120 -27 125 -25 12 3 -205 56 -226 55 -8 -1 38
-14 101 -30z"/>
<path d="M12548 20173 c7 -3 16 -2 19 1 4 3 -2 6 -13 5 -11 0 -14 -3 -6 -6z"/>
<path d="M7758 20163 c7 -3 16 -2 19 1 4 3 -2 6 -13 5 -11 0 -14 -3 -6 -6z"/>
<path d="M7690 20150 c-20 -6 -21 -8 -5 -8 11 0 29 3 40 8 25 11 -1 11 -35 0z"/>
<path d="M7595 20125 c-39 -14 -40 -14 -5 -8 41 7 82 22 60 22 -8 0 -33 -7
-55 -14z"/>
<path d="M12887 20119 c7 -7 15 -10 18 -7 3 3 -2 9 -12 12 -14 6 -15 5 -6 -5z"/>
<path d="M7375 20065 c-157 -46 -237 -73 -219 -74 6 -1 35 7 65 18 30 10 115
35 189 56 74 20 137 39 139 41 12 11 -37 -1 -174 -41z"/>
<path d="M12965 20094 c28 -7 55 -13 60 -13 17 2 -69 27 -90 27 -11 0 3 -6 30
-14z"/>
<path d="M13070 20065 c19 -7 42 -13 50 -13 8 0 -1 6 -20 13 -19 7 -42 13 -50
13 -8 0 1 -6 20 -13z"/>
<path d="M13160 20040 c8 -5 22 -9 30 -9 10 0 8 3 -5 9 -27 12 -43 12 -25 0z"/>
<path d="M13354 19979 c82 -27 151 -48 153 -45 6 5 -270 96 -289 96 -7 -1 54
-23 136 -51z"/>
<path d="M7010 19950 c-18 -12 -2 -12 25 0 13 6 15 9 5 9 -8 0 -22 -4 -30 -9z"/>
<path d="M13397 19939 c7 -7 15 -10 18 -7 3 3 -2 9 -12 12 -14 6 -15 5 -6 -5z"/>
<path d="M13520 19926 c0 -2 7 -6 15 -10 8 -3 15 -1 15 4 0 6 -7 10 -15 10 -8
0 -15 -2 -15 -4z"/>
<path d="M13671 19871 c128 -47 156 -55 148 -47 -9 10 -222 86 -239 85 -8 0
33 -17 91 -38z"/>
<path d="M6712 19848 c-46 -16 -81 -33 -78 -35 5 -5 87 23 151 52 53 24 12 15
-73 -17z"/>
<path d="M13845 19809 c3 -4 29 -15 58 -25 28 -9 59 -19 67 -22 8 -3 12 -2 9
2 -10 10 -139 55 -134 45z"/>
<path d="M6532 19779 c-29 -12 -52 -23 -50 -25 5 -4 94 29 104 39 10 10 6 9
-54 -14z"/>
<path d="M6620 19781 c-8 -6 -18 -7 -22 -5 -4 3 -8 0 -8 -5 0 -13 -3 -14 45 4
22 8 31 14 20 14 -11 1 -27 -3 -35 -8z"/>
<path d="M6735 19780 c-3 -5 -1 -10 4 -10 6 0 11 5 11 10 0 6 -2 10 -4 10 -3
0 -8 -4 -11 -10z"/>
<path d="M6658 19763 c7 -3 16 -2 19 1 4 3 -2 6 -13 5 -11 0 -14 -3 -6 -6z"/>
<path d="M14000 19751 c8 -5 26 -12 40 -15 l25 -7 -25 15 c-14 9 -32 15 -40
15 -13 0 -13 -1 0 -8z"/>
<path d="M6600 19746 c0 -2 6 -9 13 -15 10 -8 14 -7 14 4 0 8 -6 15 -14 15 -7
0 -13 -2 -13 -4z"/>
<path d="M6670 19729 l-25 -7 25 -1 c21 -1 22 -3 10 -12 -12 -9 -12 -10 3 -5
10 3 25 6 33 6 9 0 13 4 9 9 -3 5 5 11 17 14 13 2 8 4 -12 4 -19 0 -46 -4 -60
-8z"/>
<path d="M6345 19704 c-27 -13 -39 -21 -26 -18 35 9 108 44 91 43 -8 0 -37
-12 -65 -25z"/>
<path d="M14085 19718 c26 -18 156 -70 162 -65 2 3 -30 19 -72 36 -102 43
-115 47 -90 29z"/>
<path d="M6566 19689 c2 -4 14 -5 27 -2 18 4 19 3 7 -7 -12 -9 -10 -10 10 -4
53 14 54 23 3 21 -29 0 -50 -4 -47 -8z"/>
<path d="M6254 19664 c-18 -14 -18 -14 6 -3 31 14 36 19 24 19 -6 0 -19 -7
-30 -16z"/>
<path d="M6548 19653 c7 -3 16 -2 19 1 4 3 -2 6 -13 5 -11 0 -14 -3 -6 -6z"/>
<path d="M6170 19630 c-8 -5 -10 -10 -5 -10 6 0 17 5 25 10 8 5 11 10 5 10 -5
0 -17 -5 -25 -10z"/>
<path d="M14295 19630 c3 -5 10 -10 15 -10 16 0 171 -76 166 -81 -3 -3 3 -5
12 -6 15 -1 69 -25 215 -94 20 -10 37 -15 37 -11 0 5 -30 22 -67 39 -38 17
-137 63 -221 102 -159 74 -167 77 -157 61z"/>
<path d="M6100 19600 c-9 -6 -10 -10 -3 -10 6 0 15 5 18 10 8 12 4 12 -15 0z"/>
<path d="M5958 19536 c-72 -34 -105 -57 -48 -34 50 21 137 67 125 67 -5 -1
-40 -15 -77 -33z"/>
<path d="M14437 19539 c7 -7 15 -10 18 -7 3 3 -2 9 -12 12 -14 6 -15 5 -6 -5z"/>
<path d="M14320 19495 c0 -14 77 -42 95 -34 19 7 19 8 -2 8 -13 1 -23 6 -23
12 0 6 -9 8 -20 4 -11 -4 -20 -2 -20 4 0 6 -7 11 -15 11 -8 0 -15 -2 -15 -5z"/>
<path d="M14510 19494 c0 -19 38 -47 56 -40 13 5 14 9 4 22 -11 12 -15 12 -21
2 -6 -10 -12 -8 -23 7 -9 11 -16 15 -16 9z"/>
<path d="M5845 19480 c-3 -6 1 -7 9 -4 18 7 21 14 7 14 -6 0 -13 -4 -16 -10z"/>
<path d="M5970 19460 c0 -5 5 -10 11 -10 5 0 7 5 4 10 -3 6 -8 10 -11 10 -2 0
-4 -4 -4 -10z"/>
<path d="M14595 19460 c-4 -6 3 -10 14 -10 25 0 27 6 6 13 -8 4 -17 2 -20 -3z"/>
<path d="M14750 19416 c0 -8 132 -67 137 -62 3 3 -24 19 -60 36 -64 30 -77 34
-77 26z"/>
<path d="M14530 19401 c0 -6 4 -12 8 -15 5 -3 9 1 9 9 0 8 -4 15 -9 15 -4 0
-8 -4 -8 -9z"/>
<path d="M5675 19370 c-3 -5 1 -10 10 -10 9 0 13 5 10 10 -3 6 -8 10 -10 10
-2 0 -7 -4 -10 -10z"/>
<path d="M14900 19345 c0 -3 37 -23 83 -46 97 -48 92 -38 -6 15 -71 37 -77 40
-77 31z"/>
<path d="M5530 19319 c0 -5 5 -7 10 -4 6 3 10 8 10 11 0 2 -4 4 -10 4 -5 0
-10 -5 -10 -11z"/>
<path d="M5669 19317 c6 -8 8 -17 4 -20 -3 -4 -1 -7 5 -7 6 0 10 9 9 20 -1 11
-8 20 -15 20 -11 0 -12 -3 -3 -13z"/>
<path d="M14680 19326 c0 -2 7 -7 16 -10 8 -3 12 -2 9 4 -6 10 -25 14 -25 6z"/>
<path d="M5558 19307 c-16 -6 -28 -14 -28 -19 0 -9 22 -7 30 3 3 3 14 11 25
17 25 14 9 14 -27 -1z"/>
<path d="M5630 19291 c-14 -4 -20 -10 -14 -14 6 -3 20 0 30 8 21 16 20 16 -16
6z"/>
<path d="M5565 19273 c-7 -21 -7 -23 11 -23 8 0 12 5 9 10 -3 6 -1 10 4 10 6
0 11 4 11 8 0 14 -29 10 -35 -5z"/>
<path d="M5416 19265 c-11 -8 -15 -15 -10 -15 6 0 19 7 30 15 10 8 15 14 9 14
-5 0 -19 -6 -29 -14z"/>
<path d="M5606 19244 c-9 -8 -16 -21 -16 -27 0 -7 5 -4 11 5 6 11 16 15 26 11
10 -4 14 -2 10 5 -4 6 1 13 10 15 14 4 13 5 -4 6 -12 0 -29 -6 -37 -15z"/>
<path d="M15082 19248 c7 -7 27 -20 43 -28 17 -8 63 -34 103 -57 41 -24 76
-43 78 -43 17 0 83 -53 78 -62 -5 -8 -10 -6 -18 4 -6 8 -17 13 -23 11 -7 -3
-13 0 -13 6 0 6 -12 11 -26 11 -17 0 -23 -4 -18 -12 6 -10 5 -10 -7 -2 -8 7
-23 14 -34 17 -13 3 -9 5 13 6 32 1 42 14 20 27 -6 4 -14 2 -16 -4 -2 -7 -18
-12 -35 -12 -18 0 -39 -5 -47 -10 -13 -9 -13 -11 0 -20 8 -5 11 -10 7 -10 -5
0 -20 9 -33 19 -17 13 -20 21 -12 25 7 3 1 3 -13 0 -15 -3 -30 -1 -33 5 -4 6
-15 11 -24 11 -9 0 -1 -8 18 -17 19 -10 37 -21 38 -25 2 -5 23 -17 47 -28 24
-11 47 -24 50 -30 3 -5 13 -10 21 -10 8 0 12 4 9 10 -4 6 2 7 17 1 13 -5 37
-7 54 -5 28 4 28 4 5 -6 -13 -6 -32 -8 -42 -5 -27 9 -23 -9 5 -24 18 -10 28
-11 42 -2 17 11 16 11 -6 6 -23 -6 -24 -5 -5 6 11 7 41 13 68 14 42 1 51 -4
49 -26 -1 -4 10 -6 23 -5 29 1 32 11 8 20 -25 9 -63 32 -76 46 -20 20 30 1 85
-32 47 -29 61 -48 36 -48 -8 0 -5 -7 6 -15 11 -8 27 -15 35 -15 13 1 12 4 -3
15 -29 22 -12 29 21 10 25 -15 26 -15 8 0 -20 16 -284 175 -292 175 -2 0 -20
10 -41 23 -50 32 -170 97 -177 97 -4 0 0 -6 7 -12z m134 -168 c0 -11 -6 -20
-12 -20 -10 0 -12 15 -5 38 4 11 17 -2 17 -18z m98 -15 c-4 -8 -10 -15 -15
-15 -4 0 -6 7 -3 15 4 8 10 15 15 15 4 0 6 -7 3 -15z m-57 -1 c-3 -3 -12 -4
-19 -1 -8 3 -5 6 6 6 11 1 17 -2 13 -5z m121 -17 c6 0 12 -4 12 -9 0 -9 -16
-10 -47 -2 -13 4 -20 11 -17 16 3 5 13 6 23 2 9 -3 22 -7 29 -7z"/>
<path d="M5364 19234 c-18 -14 -18 -15 4 -4 12 6 22 13 22 15 0 8 -5 6 -26
-11z"/>
<path d="M5416 19231 c-3 -5 1 -11 9 -14 9 -4 12 -1 8 9 -6 16 -10 17 -17 5z"/>
<path d="M5287 19194 c-27 -14 -47 -28 -44 -30 5 -5 75 31 92 47 14 14 4 10
-48 -17z"/>
<path d="M5555 19210 c-3 -5 1 -10 9 -10 9 0 16 5 16 10 0 6 -4 10 -9 10 -6 0
-13 -4 -16 -10z"/>
<path d="M15164 19159 c-4 -8 -3 -10 4 -5 13 8 55 -11 48 -22 -3 -5 4 -9 15
-9 38 -3 17 16 -47 43 -7 3 -15 0 -20 -7z"/>
<path d="M5210 19150 c-9 -6 -10 -10 -3 -10 6 0 15 5 18 10 8 12 4 12 -15 0z"/>
<path d="M5255 19147 c-14 -11 -15 -16 -5 -22 9 -6 11 -4 5 5 -6 9 -4 12 7 8
9 -4 15 0 15 8 0 17 1 17 -22 1z"/>
<path d="M5145 19110 c-16 -11 -25 -20 -20 -20 10 0 64 39 55 40 -3 0 -18 -9
-35 -20z"/>
<path d="M5210 19124 c0 -10 31 -36 37 -31 3 3 -2 13 -10 22 -16 15 -27 19
-27 9z"/>
<path d="M5300 19100 c12 -8 12 -10 1 -10 -8 0 -12 -2 -9 -5 3 -3 13 -2 22 1
14 5 15 9 4 15 -7 5 -17 9 -23 9 -5 0 -3 -5 5 -10z"/>
<path d="M5053 19060 c-51 -29 -72 -50 -35 -35 9 4 28 7 42 7 14 0 19 2 13 5
-23 9 -14 20 15 18 15 -1 19 0 9 2 -18 4 -18 5 0 18 30 23 11 17 -44 -15z"/>
<path d="M5211 19083 c-1 -7 -9 -13 -18 -13 -15 0 -16 -2 -3 -10 18 -11 35 2
27 22 -4 9 -6 10 -6 1z"/>
<path d="M5144 19050 c-12 -5 -26 -15 -30 -22 -6 -11 -5 -11 9 0 9 8 20 11 26
8 5 -3 11 1 15 9 3 8 4 15 3 14 -1 0 -12 -4 -23 -9z"/>
<path d="M5038 19013 c23 -9 12 -20 -20 -20 -18 0 -34 -5 -36 -11 -2 -6 -10
-8 -18 -5 -7 3 -11 9 -8 14 9 15 -4 10 -56 -22 -49 -30 -66 -47 -34 -35 8 3
22 -1 31 -9 14 -14 13 -15 -11 -11 -14 2 -28 0 -32 -5 -3 -5 -10 -7 -15 -3 -5
3 -6 10 -3 16 7 11 -40 -16 -68 -40 -9 -8 -14 -20 -11 -28 3 -9 -1 -14 -12
-14 -10 0 -14 -5 -10 -12 4 -7 0 -6 -7 4 -20 24 -47 6 -40 -27 4 -26 16 -32
27 -15 3 6 16 9 28 9 17 -1 18 -2 5 -6 -10 -2 -18 -10 -18 -18 0 -7 -8 -12
-17 -10 -10 1 -12 0 -5 -2 20 -7 13 -26 -8 -20 -16 4 -20 0 -19 -16 0 -12 3
-16 6 -9 2 6 14 12 24 12 13 0 18 -4 13 -12 -4 -7 8 -3 27 8 26 15 33 26 32
45 -1 13 0 18 3 12 9 -20 42 -15 61 7 10 11 26 20 36 20 10 0 15 5 12 10 -3 6
3 10 14 10 12 0 30 9 41 20 11 11 22 20 25 20 17 0 22 2 39 15 20 15 20 15 0
30 -15 12 -15 14 -2 9 23 -8 42 4 29 20 -12 14 -3 30 23 39 15 6 16 10 6 22
-7 8 -20 15 -29 14 -10 0 -11 -2 -3 -6z m-8 -28 c0 -2 -10 -9 -22 -15 -22 -11
-22 -10 -4 4 21 17 26 19 26 11z m-82 -18 c8 -9 7 -13 -6 -13 -9 -1 -26 -4
-37 -8 -17 -7 -17 -5 4 13 27 25 26 24 39 8z m-4 -26 c3 -5 -1 -11 -9 -14 -9
-4 -12 -1 -8 9 6 16 10 17 17 5z m-114 -40 c0 -5 -7 -12 -16 -15 -14 -5 -15
-4 -4 9 14 17 20 19 20 6z m130 0 c0 -6 -4 -12 -8 -15 -5 -3 -9 1 -9 9 0 8 4
15 9 15 4 0 8 -4 8 -9z m-159 -38 c10 -11 10 -14 2 -9 -8 4 -13 1 -13 -8 0 -9
-8 -16 -17 -16 -15 0 -16 -2 -3 -10 8 -5 12 -11 9 -14 -2 -3 -11 -1 -19 5 -13
8 -13 11 0 22 9 6 14 20 12 30 -4 22 11 22 29 0z m79 -33 c0 -5 -7 -10 -15
-10 -8 0 -15 5 -15 10 0 6 7 10 15 10 8 0 15 -4 15 -10z m-160 -10 c0 -5 -4
-10 -10 -10 -5 0 -10 5 -10 10 0 6 5 10 10 10 6 0 10 -4 10 -10z m110 0 c0 -5
0 -12 0 -15 0 -14 -13 -8 -16 8 -1 9 2 17 7 17 5 0 9 -4 9 -10z m-63 -56 c3
-9 0 -20 -8 -25 -19 -12 -29 -11 -29 1 0 6 7 10 16 10 14 0 14 3 4 15 -9 11
-9 15 -1 15 6 0 14 -7 18 -16z"/>
<path d="M5138 19013 c-16 -2 -28 -9 -28 -14 0 -6 4 -8 9 -5 5 3 11 -1 15 -9
6 -18 1 -19 -25 -5 -14 8 -25 7 -40 -4 -13 -9 -16 -16 -10 -21 6 -3 11 -1 11
4 0 6 9 11 21 11 21 0 21 0 -2 -20 l-24 -20 30 12 c17 7 41 19 54 27 22 14 22
15 5 23 -15 6 -13 7 6 4 14 -3 32 -1 40 4 9 6 10 10 3 10 -6 0 -17 2 -25 3 -7
2 -25 2 -40 0z"/>
<path d="M15468 18963 c7 -3 16 -2 19 1 4 3 -2 6 -13 5 -11 0 -14 -3 -6 -6z"/>
<path d="M15395 18950 c-3 -5 -1 -10 4 -10 6 0 11 5 11 10 0 6 -2 10 -4 10 -3
0 -8 -4 -11 -10z"/>
<path d="M15610 18942 c0 -6 -8 -13 -17 -15 -10 -3 -4 -4 14 -4 18 1 31 -2 30
-8 -1 -5 -8 -9 -14 -9 -7 1 -10 -2 -7 -7 8 -13 32 -11 36 3 3 8 14 5 34 -9 37
-26 130 -84 172 -109 40 -23 41 -31 2 -31 -25 0 -28 3 -17 15 10 13 9 14 -12
3 -17 -9 -26 -10 -34 -2 -16 16 -27 13 -27 -8 0 -14 9 -20 35 -23 19 -2 39 0
45 6 5 5 13 6 17 2 5 -4 -1 -14 -11 -22 -11 -8 -15 -14 -9 -14 7 0 18 7 26 15
8 8 16 12 19 10 2 -2 4 4 5 15 1 14 -29 38 -115 93 -64 40 -129 81 -144 91
-16 10 -28 14 -28 8z"/>
<path d="M15535 18920 c-4 -7 -18 -10 -30 -7 -18 3 -23 0 -22 -15 1 -19 27
-26 27 -7 0 7 10 9 24 7 16 -3 23 0 22 8 -3 20 -13 27 -21 14z"/>
<path d="M5040 18909 c0 -5 5 -7 10 -4 6 3 10 8 10 11 0 2 -4 4 -10 4 -5 0
-10 -5 -10 -11z"/>
<path d="M15455 18900 c3 -5 8 -10 11 -10 2 0 4 5 4 10 0 6 -5 10 -11 10 -5 0
-7 -4 -4 -10z"/>
<path d="M15575 18900 c-3 -5 -1 -10 4 -10 6 0 11 5 11 10 0 6 -2 10 -4 10 -3
0 -8 -4 -11 -10z"/>
<path d="M15556 18835 c10 -8 24 -14 29 -14 6 0 1 6 -9 14 -11 8 -24 15 -30
15 -5 0 -1 -7 10 -15z"/>
<path d="M4655 18810 c-3 -5 -1 -10 4 -10 6 0 11 5 11 10 0 6 -2 10 -4 10 -3
0 -8 -4 -11 -10z"/>
<path d="M15727 18799 c7 -7 15 -10 18 -7 3 3 -2 9 -12 12 -14 6 -15 5 -6 -5z"/>
<path d="M4634 18788 c2 -7 -4 -18 -13 -25 -24 -18 -35 -16 -20 5 13 15 12 16
-3 4 -19 -15 -14 -43 7 -36 7 3 16 0 21 -7 4 -8 3 -10 -4 -5 -17 10 -15 -3 2
-20 20 -19 32 -18 15 2 -12 15 -11 16 10 9 l23 -7 -21 21 c-24 24 -19 45 10
38 11 -3 19 -1 19 4 0 5 -9 9 -19 9 -11 0 -22 5 -24 10 -3 6 -4 5 -3 -2z"/>
<path d="M15788 18793 c7 -3 16 -2 19 1 4 3 -2 6 -13 5 -11 0 -14 -3 -6 -6z"/>
<path d="M15713 18740 c14 -11 29 -20 34 -20 11 1 -37 40 -49 40 -6 0 1 -9 15
-20z"/>
<path d="M15910 18754 c0 -11 28 -33 34 -27 3 4 6 1 6 -5 0 -7 7 -12 16 -12
11 0 13 -6 9 -19 -4 -13 0 -23 12 -30 16 -9 16 -10 -4 -11 -24 0 -29 -10 -14
-25 6 -6 4 -15 -5 -23 -14 -13 -15 -12 -18 23 0 11 -7 19 -13 18 -7 -2 -13 2
-13 7 0 6 9 10 21 10 11 0 17 5 14 10 -10 16 -32 12 -39 -7 -5 -11 -1 -22 10
-30 10 -7 14 -16 11 -20 -4 -4 -13 -1 -19 5 -7 7 -16 12 -22 12 -17 0 63 -63
146 -115 29 -19 63 -43 75 -54 24 -22 49 -29 37 -9 -4 7 -3 8 5 4 6 -4 9 -11
7 -15 -6 -9 27 -40 72 -67 18 -10 32 -22 32 -26 0 -4 4 -8 10 -8 5 0 19 -8 29
-17 21 -18 61 -25 61 -11 0 4 -9 8 -20 8 -12 0 -31 10 -43 21 -18 18 -19 21
-4 16 11 -4 16 -3 12 4 -4 5 -1 16 5 24 7 9 8 15 2 15 -5 0 -15 -7 -22 -15
-13 -15 -42 -20 -53 -8 -4 3 5 17 19 30 25 23 23 26 -21 26 -6 0 -11 20 -11
44 -1 23 2 43 6 43 14 0 21 -18 11 -24 -20 -13 -4 -41 25 -44 22 -2 26 0 14 7
-12 9 -11 11 7 11 29 0 38 -17 21 -38 -12 -15 -11 -16 4 -4 18 14 43 7 32 -9
-3 -5 -8 -7 -12 -5 -4 2 -8 -7 -8 -20 -2 -25 11 -33 19 -11 2 6 8 9 12 5 5 -5
-2 -17 -15 -28 -13 -11 -21 -23 -17 -26 3 -3 16 3 28 15 20 18 46 26 72 22 13
-2 7 11 -10 25 -10 7 -22 13 -28 13 -5 0 -1 -6 9 -14 24 -18 16 -19 -19 -3
-26 12 -34 28 -12 28 6 0 -6 16 -28 34 -29 25 -47 33 -65 30 -20 -3 -21 -3 -6
4 16 7 7 17 -60 64 -43 31 -80 52 -82 47 -6 -16 -42 -10 -42 7 0 10 6 14 15
10 26 -10 16 1 -34 38 -52 38 -61 42 -61 26 0 -5 6 -10 13 -10 6 0 26 -11 42
-25 23 -19 26 -24 13 -25 -10 0 -18 4 -18 8 0 5 -18 19 -41 31 -30 17 -37 26
-28 32 7 4 11 10 9 12 -16 14 -90 56 -90 51z m245 -174 c3 -5 2 -10 -4 -10 -5
0 -13 5 -16 10 -3 6 -2 10 4 10 5 0 13 -4 16 -10z m57 -71 c-21 -25 -24 -24
-16 6 4 18 2 25 -9 25 -8 0 -17 -7 -21 -15 -3 -8 -11 -15 -17 -15 -7 0 -2 11
10 24 22 23 25 24 47 10 21 -14 22 -17 6 -35z m-35 -14 c0 -8 -4 -15 -9 -15
-10 0 -11 14 -1 23 9 10 10 9 10 -8z m-27 -10 c0 -8 -3 -15 -6 -15 -3 0 -12 7
-20 15 -14 13 -13 15 5 15 12 0 21 -6 21 -15z m60 -35 c-13 -9 -12 -13 8 -28
13 -10 20 -21 16 -25 -8 -7 -44 35 -44 52 0 6 8 11 18 11 14 0 15 -2 2 -10z"/>
<path d="M15910 18723 c0 -7 -7 -13 -16 -13 -8 0 -12 -4 -9 -10 3 -5 22 -9 41
-8 30 1 33 3 17 11 -10 6 -21 15 -25 21 -5 8 -8 7 -8 -1z"/>
<path d="M15825 18700 c6 -10 3 -12 -13 -8 -28 8 -28 -3 -2 -20 22 -14 94 -6
85 9 -3 4 -17 4 -31 -1 -37 -14 -49 -13 -35 4 9 11 9 16 0 22 -8 5 -9 3 -4 -6z"/>
<path d="M4665 18690 c3 -5 10 -10 16 -10 5 0 9 5 9 10 0 6 -7 10 -16 10 -8 0
-12 -4 -9 -10z"/>
<path d="M4635 18669 c-4 -6 -5 -12 -2 -15 7 -7 37 7 37 17 0 13 -27 11 -35
-2z"/>
<path d="M15865 18640 c4 -6 11 -8 16 -5 14 9 11 15 -7 15 -8 0 -12 -5 -9 -10z"/>
<path d="M4530 18610 c0 -24 18 -25 45 -4 20 16 20 16 -2 9 -14 -4 -23 -2 -23
4 0 6 -4 11 -10 11 -5 0 -10 -9 -10 -20z"/>
<path d="M16415 18350 c-3 -5 -1 -10 4 -10 6 0 11 5 11 10 0 6 -2 10 -4 10 -3
0 -8 -4 -11 -10z"/>
<path d="M16370 18340 c0 -5 4 -10 9 -10 5 0 18 -3 28 -7 17 -6 17 -6 1 10
-18 19 -38 22 -38 7z"/>
<path d="M16395 18300 c3 -5 8 -10 11 -10 2 0 4 5 4 10 0 6 -5 10 -11 10 -5 0
-7 -4 -4 -10z"/>
</g>
</svg>
